<mxfile host="app.diagrams.net" modified="2023-07-11T08:05:36.281Z" agent="Mozilla/5.0 (Windows NT 10.0; Win64; x64) AppleWebKit/537.36 (KHTML, like Gecko) Chrome/114.0.0.0 Safari/537.36" etag="LGq5TsiHCh2cL_mLN0RQ" version="21.5.2" type="device" pages="2">
  <diagram name="Page-1" id="FURdNrN0oUdLl79sUNwF">
    <mxGraphModel dx="1636" dy="566" grid="1" gridSize="10" guides="1" tooltips="1" connect="1" arrows="1" fold="1" page="1" pageScale="1" pageWidth="827" pageHeight="1169" math="0" shadow="0">
      <root>
        <mxCell id="0" />
        <mxCell id="1" parent="0" />
        <mxCell id="jiBfUynVm0UYuZoErs8x-9" value="" style="edgeStyle=orthogonalEdgeStyle;rounded=0;orthogonalLoop=1;jettySize=auto;html=1;" edge="1" parent="1" source="jiBfUynVm0UYuZoErs8x-1" target="jiBfUynVm0UYuZoErs8x-8">
          <mxGeometry relative="1" as="geometry" />
        </mxCell>
        <mxCell id="jiBfUynVm0UYuZoErs8x-38" value="" style="edgeStyle=orthogonalEdgeStyle;rounded=0;orthogonalLoop=1;jettySize=auto;html=1;" edge="1" parent="1" source="jiBfUynVm0UYuZoErs8x-1" target="jiBfUynVm0UYuZoErs8x-36">
          <mxGeometry relative="1" as="geometry" />
        </mxCell>
        <mxCell id="jiBfUynVm0UYuZoErs8x-1" value="Doctor" style="whiteSpace=wrap;html=1;align=center;" vertex="1" parent="1">
          <mxGeometry y="290" width="100" height="40" as="geometry" />
        </mxCell>
        <mxCell id="jiBfUynVm0UYuZoErs8x-6" style="rounded=0;orthogonalLoop=1;jettySize=auto;html=1;exitX=0.5;exitY=1;exitDx=0;exitDy=0;entryX=0.25;entryY=0;entryDx=0;entryDy=0;" edge="1" parent="1" source="jiBfUynVm0UYuZoErs8x-2" target="jiBfUynVm0UYuZoErs8x-1">
          <mxGeometry relative="1" as="geometry" />
        </mxCell>
        <mxCell id="jiBfUynVm0UYuZoErs8x-2" value="Records" style="ellipse;whiteSpace=wrap;html=1;align=center;" vertex="1" parent="1">
          <mxGeometry x="-20" y="210" width="100" height="40" as="geometry" />
        </mxCell>
        <mxCell id="jiBfUynVm0UYuZoErs8x-5" style="rounded=0;orthogonalLoop=1;jettySize=auto;html=1;exitX=1;exitY=1;exitDx=0;exitDy=0;entryX=0;entryY=0;entryDx=0;entryDy=0;" edge="1" parent="1" source="jiBfUynVm0UYuZoErs8x-3" target="jiBfUynVm0UYuZoErs8x-1">
          <mxGeometry relative="1" as="geometry" />
        </mxCell>
        <mxCell id="jiBfUynVm0UYuZoErs8x-3" value="Personal details" style="ellipse;whiteSpace=wrap;html=1;align=center;" vertex="1" parent="1">
          <mxGeometry x="-120" y="230" width="100" height="40" as="geometry" />
        </mxCell>
        <mxCell id="jiBfUynVm0UYuZoErs8x-7" style="rounded=0;orthogonalLoop=1;jettySize=auto;html=1;exitX=0;exitY=1;exitDx=0;exitDy=0;entryX=0.59;entryY=-0.15;entryDx=0;entryDy=0;entryPerimeter=0;" edge="1" parent="1" source="jiBfUynVm0UYuZoErs8x-4" target="jiBfUynVm0UYuZoErs8x-1">
          <mxGeometry relative="1" as="geometry" />
        </mxCell>
        <mxCell id="jiBfUynVm0UYuZoErs8x-4" value="patient id" style="ellipse;whiteSpace=wrap;html=1;align=center;" vertex="1" parent="1">
          <mxGeometry x="90" y="220" width="100" height="40" as="geometry" />
        </mxCell>
        <mxCell id="WfV3LxgvtC_mbMyBmT8c-12" value="" style="edgeStyle=orthogonalEdgeStyle;rounded=0;orthogonalLoop=1;jettySize=auto;html=1;" edge="1" parent="1" source="jiBfUynVm0UYuZoErs8x-8" target="WfV3LxgvtC_mbMyBmT8c-6">
          <mxGeometry relative="1" as="geometry" />
        </mxCell>
        <mxCell id="jiBfUynVm0UYuZoErs8x-8" value="treat" style="shape=rhombus;perimeter=rhombusPerimeter;whiteSpace=wrap;html=1;align=center;" vertex="1" parent="1">
          <mxGeometry x="150" y="280" width="120" height="60" as="geometry" />
        </mxCell>
        <mxCell id="jiBfUynVm0UYuZoErs8x-16" style="rounded=0;orthogonalLoop=1;jettySize=auto;html=1;exitX=0.5;exitY=0;exitDx=0;exitDy=0;entryX=0;entryY=0.5;entryDx=0;entryDy=0;" edge="1" parent="1" source="jiBfUynVm0UYuZoErs8x-11" target="jiBfUynVm0UYuZoErs8x-14">
          <mxGeometry relative="1" as="geometry" />
        </mxCell>
        <mxCell id="jiBfUynVm0UYuZoErs8x-17" style="rounded=0;orthogonalLoop=1;jettySize=auto;html=1;exitX=0.5;exitY=1;exitDx=0;exitDy=0;entryX=0;entryY=0.5;entryDx=0;entryDy=0;" edge="1" parent="1" source="jiBfUynVm0UYuZoErs8x-11" target="jiBfUynVm0UYuZoErs8x-15">
          <mxGeometry relative="1" as="geometry" />
        </mxCell>
        <mxCell id="jiBfUynVm0UYuZoErs8x-11" value="iss" style="triangle;whiteSpace=wrap;html=1;" vertex="1" parent="1">
          <mxGeometry x="590" y="260" width="60" height="80" as="geometry" />
        </mxCell>
        <mxCell id="jiBfUynVm0UYuZoErs8x-14" value="Out patient" style="whiteSpace=wrap;html=1;align=center;" vertex="1" parent="1">
          <mxGeometry x="670" y="210" width="100" height="40" as="geometry" />
        </mxCell>
        <mxCell id="jiBfUynVm0UYuZoErs8x-19" value="" style="edgeStyle=orthogonalEdgeStyle;rounded=0;orthogonalLoop=1;jettySize=auto;html=1;" edge="1" parent="1" source="jiBfUynVm0UYuZoErs8x-15" target="jiBfUynVm0UYuZoErs8x-18">
          <mxGeometry relative="1" as="geometry" />
        </mxCell>
        <mxCell id="WfV3LxgvtC_mbMyBmT8c-37" style="rounded=0;orthogonalLoop=1;jettySize=auto;html=1;exitX=0.75;exitY=1;exitDx=0;exitDy=0;entryX=0;entryY=0.5;entryDx=0;entryDy=0;" edge="1" parent="1" source="jiBfUynVm0UYuZoErs8x-15" target="WfV3LxgvtC_mbMyBmT8c-36">
          <mxGeometry relative="1" as="geometry" />
        </mxCell>
        <mxCell id="jiBfUynVm0UYuZoErs8x-15" value="Admit patient" style="whiteSpace=wrap;html=1;align=center;" vertex="1" parent="1">
          <mxGeometry x="680" y="320" width="100" height="40" as="geometry" />
        </mxCell>
        <mxCell id="jiBfUynVm0UYuZoErs8x-22" value="" style="edgeStyle=orthogonalEdgeStyle;rounded=0;orthogonalLoop=1;jettySize=auto;html=1;" edge="1" parent="1" source="jiBfUynVm0UYuZoErs8x-18" target="jiBfUynVm0UYuZoErs8x-21">
          <mxGeometry relative="1" as="geometry" />
        </mxCell>
        <mxCell id="jiBfUynVm0UYuZoErs8x-18" value="Admit" style="shape=rhombus;perimeter=rhombusPerimeter;whiteSpace=wrap;html=1;align=center;" vertex="1" parent="1">
          <mxGeometry x="810" y="310" width="120" height="60" as="geometry" />
        </mxCell>
        <mxCell id="jiBfUynVm0UYuZoErs8x-33" value="" style="edgeStyle=orthogonalEdgeStyle;rounded=0;orthogonalLoop=1;jettySize=auto;html=1;" edge="1" parent="1" source="jiBfUynVm0UYuZoErs8x-21" target="jiBfUynVm0UYuZoErs8x-32">
          <mxGeometry relative="1" as="geometry" />
        </mxCell>
        <mxCell id="jiBfUynVm0UYuZoErs8x-21" value="ward" style="whiteSpace=wrap;html=1;align=center;" vertex="1" parent="1">
          <mxGeometry x="970" y="320" width="100" height="40" as="geometry" />
        </mxCell>
        <mxCell id="WfV3LxgvtC_mbMyBmT8c-10" style="rounded=0;orthogonalLoop=1;jettySize=auto;html=1;exitX=0;exitY=0.5;exitDx=0;exitDy=0;entryX=0.75;entryY=0;entryDx=0;entryDy=0;" edge="1" parent="1" source="jiBfUynVm0UYuZoErs8x-23" target="jiBfUynVm0UYuZoErs8x-21">
          <mxGeometry relative="1" as="geometry" />
        </mxCell>
        <mxCell id="jiBfUynVm0UYuZoErs8x-23" value="floor" style="ellipse;whiteSpace=wrap;html=1;align=center;" vertex="1" parent="1">
          <mxGeometry x="1141" y="260" width="100" height="40" as="geometry" />
        </mxCell>
        <mxCell id="WfV3LxgvtC_mbMyBmT8c-9" style="rounded=0;orthogonalLoop=1;jettySize=auto;html=1;exitX=0;exitY=1;exitDx=0;exitDy=0;entryX=0.5;entryY=0;entryDx=0;entryDy=0;" edge="1" parent="1" source="jiBfUynVm0UYuZoErs8x-24" target="jiBfUynVm0UYuZoErs8x-21">
          <mxGeometry relative="1" as="geometry" />
        </mxCell>
        <mxCell id="jiBfUynVm0UYuZoErs8x-24" value="ward name" style="ellipse;whiteSpace=wrap;html=1;align=center;" vertex="1" parent="1">
          <mxGeometry x="1041" y="210" width="100" height="40" as="geometry" />
        </mxCell>
        <mxCell id="WfV3LxgvtC_mbMyBmT8c-8" style="rounded=0;orthogonalLoop=1;jettySize=auto;html=1;exitX=0.5;exitY=1;exitDx=0;exitDy=0;entryX=0.25;entryY=0;entryDx=0;entryDy=0;" edge="1" parent="1" source="jiBfUynVm0UYuZoErs8x-25" target="jiBfUynVm0UYuZoErs8x-21">
          <mxGeometry relative="1" as="geometry" />
        </mxCell>
        <mxCell id="jiBfUynVm0UYuZoErs8x-25" value="ward no" style="ellipse;whiteSpace=wrap;html=1;align=center;" vertex="1" parent="1">
          <mxGeometry x="920" y="200" width="100" height="40" as="geometry" />
        </mxCell>
        <mxCell id="WfV3LxgvtC_mbMyBmT8c-11" style="edgeStyle=orthogonalEdgeStyle;rounded=0;orthogonalLoop=1;jettySize=auto;html=1;exitX=0;exitY=0.5;exitDx=0;exitDy=0;entryX=1;entryY=0.5;entryDx=0;entryDy=0;" edge="1" parent="1" source="jiBfUynVm0UYuZoErs8x-26" target="jiBfUynVm0UYuZoErs8x-21">
          <mxGeometry relative="1" as="geometry" />
        </mxCell>
        <mxCell id="jiBfUynVm0UYuZoErs8x-26" value="head nurse." style="ellipse;whiteSpace=wrap;html=1;align=center;" vertex="1" parent="1">
          <mxGeometry x="1120" y="320" width="100" height="40" as="geometry" />
        </mxCell>
        <mxCell id="jiBfUynVm0UYuZoErs8x-35" value="" style="rounded=0;orthogonalLoop=1;jettySize=auto;html=1;" edge="1" parent="1" source="jiBfUynVm0UYuZoErs8x-32" target="jiBfUynVm0UYuZoErs8x-34">
          <mxGeometry relative="1" as="geometry" />
        </mxCell>
        <mxCell id="jiBfUynVm0UYuZoErs8x-32" value="Has" style="shape=rhombus;perimeter=rhombusPerimeter;whiteSpace=wrap;html=1;align=center;" vertex="1" parent="1">
          <mxGeometry x="960" y="470" width="120" height="60" as="geometry" />
        </mxCell>
        <mxCell id="jiBfUynVm0UYuZoErs8x-34" value="nurse" style="whiteSpace=wrap;html=1;align=center;" vertex="1" parent="1">
          <mxGeometry x="970" y="585" width="100" height="40" as="geometry" />
        </mxCell>
        <mxCell id="jiBfUynVm0UYuZoErs8x-39" value="" style="edgeStyle=orthogonalEdgeStyle;rounded=0;orthogonalLoop=1;jettySize=auto;html=1;" edge="1" parent="1" source="jiBfUynVm0UYuZoErs8x-36" target="jiBfUynVm0UYuZoErs8x-37">
          <mxGeometry relative="1" as="geometry" />
        </mxCell>
        <mxCell id="jiBfUynVm0UYuZoErs8x-36" value="record" style="shape=rhombus;perimeter=rhombusPerimeter;whiteSpace=wrap;html=1;align=center;" vertex="1" parent="1">
          <mxGeometry x="-10" y="390" width="120" height="60" as="geometry" />
        </mxCell>
        <mxCell id="jiBfUynVm0UYuZoErs8x-37" value="diagnosis" style="whiteSpace=wrap;html=1;align=center;" vertex="1" parent="1">
          <mxGeometry y="530" width="100" height="40" as="geometry" />
        </mxCell>
        <mxCell id="WfV3LxgvtC_mbMyBmT8c-1" style="rounded=0;orthogonalLoop=1;jettySize=auto;html=1;exitX=1;exitY=0;exitDx=0;exitDy=0;entryX=0.16;entryY=1;entryDx=0;entryDy=0;entryPerimeter=0;" edge="1" parent="1" source="jiBfUynVm0UYuZoErs8x-40" target="jiBfUynVm0UYuZoErs8x-37">
          <mxGeometry relative="1" as="geometry" />
        </mxCell>
        <mxCell id="jiBfUynVm0UYuZoErs8x-40" value="diagnosis ID&amp;nbsp;" style="ellipse;whiteSpace=wrap;html=1;align=center;" vertex="1" parent="1">
          <mxGeometry x="-90" y="600" width="100" height="40" as="geometry" />
        </mxCell>
        <mxCell id="WfV3LxgvtC_mbMyBmT8c-3" style="rounded=0;orthogonalLoop=1;jettySize=auto;html=1;exitX=0.5;exitY=0;exitDx=0;exitDy=0;entryX=0.59;entryY=0.963;entryDx=0;entryDy=0;entryPerimeter=0;" edge="1" parent="1" source="jiBfUynVm0UYuZoErs8x-41" target="jiBfUynVm0UYuZoErs8x-37">
          <mxGeometry relative="1" as="geometry" />
        </mxCell>
        <mxCell id="jiBfUynVm0UYuZoErs8x-41" value="patient details" style="ellipse;whiteSpace=wrap;html=1;align=center;" vertex="1" parent="1">
          <mxGeometry x="20" y="625" width="100" height="40" as="geometry" />
        </mxCell>
        <mxCell id="WfV3LxgvtC_mbMyBmT8c-4" style="rounded=0;orthogonalLoop=1;jettySize=auto;html=1;exitX=0;exitY=0.5;exitDx=0;exitDy=0;entryX=1;entryY=1;entryDx=0;entryDy=0;" edge="1" parent="1" source="jiBfUynVm0UYuZoErs8x-42" target="jiBfUynVm0UYuZoErs8x-37">
          <mxGeometry relative="1" as="geometry" />
        </mxCell>
        <mxCell id="jiBfUynVm0UYuZoErs8x-42" value="appointment no" style="ellipse;whiteSpace=wrap;html=1;align=center;" vertex="1" parent="1">
          <mxGeometry x="130" y="600" width="100" height="40" as="geometry" />
        </mxCell>
        <mxCell id="WfV3LxgvtC_mbMyBmT8c-2" style="rounded=0;orthogonalLoop=1;jettySize=auto;html=1;exitX=0;exitY=0.5;exitDx=0;exitDy=0;entryX=1;entryY=0.5;entryDx=0;entryDy=0;" edge="1" parent="1" source="jiBfUynVm0UYuZoErs8x-43" target="jiBfUynVm0UYuZoErs8x-37">
          <mxGeometry relative="1" as="geometry" />
        </mxCell>
        <mxCell id="jiBfUynVm0UYuZoErs8x-43" value="determined" style="ellipse;whiteSpace=wrap;html=1;align=center;" vertex="1" parent="1">
          <mxGeometry x="130" y="510" width="100" height="40" as="geometry" />
        </mxCell>
        <mxCell id="WfV3LxgvtC_mbMyBmT8c-13" style="edgeStyle=orthogonalEdgeStyle;rounded=0;orthogonalLoop=1;jettySize=auto;html=1;exitX=1;exitY=0.5;exitDx=0;exitDy=0;entryX=0.033;entryY=0.631;entryDx=0;entryDy=0;entryPerimeter=0;" edge="1" parent="1" source="WfV3LxgvtC_mbMyBmT8c-6" target="jiBfUynVm0UYuZoErs8x-11">
          <mxGeometry relative="1" as="geometry" />
        </mxCell>
        <mxCell id="WfV3LxgvtC_mbMyBmT8c-39" value="" style="edgeStyle=orthogonalEdgeStyle;rounded=0;orthogonalLoop=1;jettySize=auto;html=1;" edge="1" parent="1" source="WfV3LxgvtC_mbMyBmT8c-6" target="WfV3LxgvtC_mbMyBmT8c-22">
          <mxGeometry relative="1" as="geometry" />
        </mxCell>
        <mxCell id="WfV3LxgvtC_mbMyBmT8c-6" value="patient" style="whiteSpace=wrap;html=1;align=center;" vertex="1" parent="1">
          <mxGeometry x="364" y="290" width="100" height="40" as="geometry" />
        </mxCell>
        <mxCell id="WfV3LxgvtC_mbMyBmT8c-14" value="personal details" style="ellipse;whiteSpace=wrap;html=1;align=center;" vertex="1" parent="1">
          <mxGeometry x="390" y="160" width="100" height="50" as="geometry" />
        </mxCell>
        <mxCell id="WfV3LxgvtC_mbMyBmT8c-15" value="patient ID" style="ellipse;whiteSpace=wrap;html=1;align=center;" vertex="1" parent="1">
          <mxGeometry x="290" y="190" width="100" height="40" as="geometry" />
        </mxCell>
        <mxCell id="WfV3LxgvtC_mbMyBmT8c-40" value="" style="edgeStyle=orthogonalEdgeStyle;rounded=0;orthogonalLoop=1;jettySize=auto;html=1;" edge="1" parent="1" source="WfV3LxgvtC_mbMyBmT8c-22" target="WfV3LxgvtC_mbMyBmT8c-23">
          <mxGeometry relative="1" as="geometry" />
        </mxCell>
        <mxCell id="WfV3LxgvtC_mbMyBmT8c-22" value="make" style="shape=rhombus;perimeter=rhombusPerimeter;whiteSpace=wrap;html=1;align=center;" vertex="1" parent="1">
          <mxGeometry x="354" y="390" width="120" height="60" as="geometry" />
        </mxCell>
        <mxCell id="WfV3LxgvtC_mbMyBmT8c-41" value="" style="edgeStyle=orthogonalEdgeStyle;rounded=0;orthogonalLoop=1;jettySize=auto;html=1;" edge="1" parent="1" source="WfV3LxgvtC_mbMyBmT8c-23" target="WfV3LxgvtC_mbMyBmT8c-32">
          <mxGeometry relative="1" as="geometry" />
        </mxCell>
        <mxCell id="WfV3LxgvtC_mbMyBmT8c-23" value="Appointment" style="whiteSpace=wrap;html=1;align=center;" vertex="1" parent="1">
          <mxGeometry x="364" y="510" width="100" height="40" as="geometry" />
        </mxCell>
        <mxCell id="WfV3LxgvtC_mbMyBmT8c-24" value="Doctor" style="ellipse;whiteSpace=wrap;html=1;align=center;" vertex="1" parent="1">
          <mxGeometry x="220" y="470" width="100" height="40" as="geometry" />
        </mxCell>
        <mxCell id="WfV3LxgvtC_mbMyBmT8c-30" style="rounded=0;orthogonalLoop=1;jettySize=auto;html=1;exitX=1;exitY=0;exitDx=0;exitDy=0;entryX=0;entryY=0.5;entryDx=0;entryDy=0;" edge="1" parent="1" source="WfV3LxgvtC_mbMyBmT8c-25" target="WfV3LxgvtC_mbMyBmT8c-23">
          <mxGeometry relative="1" as="geometry" />
        </mxCell>
        <mxCell id="WfV3LxgvtC_mbMyBmT8c-25" value="appointment number" style="ellipse;whiteSpace=wrap;html=1;align=center;" vertex="1" parent="1">
          <mxGeometry x="250" y="540" width="100" height="40" as="geometry" />
        </mxCell>
        <mxCell id="WfV3LxgvtC_mbMyBmT8c-43" style="rounded=0;orthogonalLoop=1;jettySize=auto;html=1;exitX=1;exitY=0;exitDx=0;exitDy=0;entryX=0.25;entryY=1;entryDx=0;entryDy=0;" edge="1" parent="1" source="WfV3LxgvtC_mbMyBmT8c-26" target="WfV3LxgvtC_mbMyBmT8c-23">
          <mxGeometry relative="1" as="geometry" />
        </mxCell>
        <mxCell id="WfV3LxgvtC_mbMyBmT8c-26" value="patient ID&amp;nbsp;" style="ellipse;whiteSpace=wrap;html=1;align=center;" vertex="1" parent="1">
          <mxGeometry x="290" y="600" width="100" height="40" as="geometry" />
        </mxCell>
        <mxCell id="WfV3LxgvtC_mbMyBmT8c-46" style="rounded=0;orthogonalLoop=1;jettySize=auto;html=1;exitX=0;exitY=0.5;exitDx=0;exitDy=0;entryX=1;entryY=0.5;entryDx=0;entryDy=0;" edge="1" parent="1" source="WfV3LxgvtC_mbMyBmT8c-27" target="WfV3LxgvtC_mbMyBmT8c-23">
          <mxGeometry relative="1" as="geometry" />
        </mxCell>
        <mxCell id="WfV3LxgvtC_mbMyBmT8c-27" value="location" style="ellipse;whiteSpace=wrap;html=1;align=center;" vertex="1" parent="1">
          <mxGeometry x="520" y="470" width="100" height="40" as="geometry" />
        </mxCell>
        <mxCell id="WfV3LxgvtC_mbMyBmT8c-45" style="rounded=0;orthogonalLoop=1;jettySize=auto;html=1;exitX=0;exitY=0.5;exitDx=0;exitDy=0;entryX=1;entryY=0.75;entryDx=0;entryDy=0;" edge="1" parent="1" source="WfV3LxgvtC_mbMyBmT8c-28" target="WfV3LxgvtC_mbMyBmT8c-23">
          <mxGeometry relative="1" as="geometry" />
        </mxCell>
        <mxCell id="WfV3LxgvtC_mbMyBmT8c-28" value="contact number" style="ellipse;shape=doubleEllipse;margin=3;whiteSpace=wrap;html=1;align=center;" vertex="1" parent="1">
          <mxGeometry x="520" y="540" width="100" height="40" as="geometry" />
        </mxCell>
        <mxCell id="WfV3LxgvtC_mbMyBmT8c-44" style="rounded=0;orthogonalLoop=1;jettySize=auto;html=1;exitX=0;exitY=0;exitDx=0;exitDy=0;entryX=0.75;entryY=1;entryDx=0;entryDy=0;" edge="1" parent="1" source="WfV3LxgvtC_mbMyBmT8c-29" target="WfV3LxgvtC_mbMyBmT8c-23">
          <mxGeometry relative="1" as="geometry" />
        </mxCell>
        <mxCell id="WfV3LxgvtC_mbMyBmT8c-29" value="time" style="ellipse;whiteSpace=wrap;html=1;align=center;" vertex="1" parent="1">
          <mxGeometry x="480" y="600" width="100" height="40" as="geometry" />
        </mxCell>
        <mxCell id="WfV3LxgvtC_mbMyBmT8c-42" value="" style="edgeStyle=orthogonalEdgeStyle;rounded=0;orthogonalLoop=1;jettySize=auto;html=1;" edge="1" parent="1" source="WfV3LxgvtC_mbMyBmT8c-32" target="WfV3LxgvtC_mbMyBmT8c-33">
          <mxGeometry relative="1" as="geometry" />
        </mxCell>
        <mxCell id="WfV3LxgvtC_mbMyBmT8c-32" value="recoded" style="shape=rhombus;double=1;perimeter=rhombusPerimeter;whiteSpace=wrap;html=1;align=center;" vertex="1" parent="1">
          <mxGeometry x="354" y="660" width="120" height="60" as="geometry" />
        </mxCell>
        <mxCell id="WfV3LxgvtC_mbMyBmT8c-33" value="payment" style="whiteSpace=wrap;html=1;align=center;" vertex="1" parent="1">
          <mxGeometry x="364" y="790" width="100" height="40" as="geometry" />
        </mxCell>
        <mxCell id="WfV3LxgvtC_mbMyBmT8c-51" style="rounded=0;orthogonalLoop=1;jettySize=auto;html=1;exitX=0.5;exitY=0;exitDx=0;exitDy=0;entryX=0.69;entryY=0.925;entryDx=0;entryDy=0;entryPerimeter=0;" edge="1" parent="1" source="WfV3LxgvtC_mbMyBmT8c-34" target="WfV3LxgvtC_mbMyBmT8c-33">
          <mxGeometry relative="1" as="geometry" />
        </mxCell>
        <mxCell id="WfV3LxgvtC_mbMyBmT8c-34" value="card" style="ellipse;whiteSpace=wrap;html=1;align=center;" vertex="1" parent="1">
          <mxGeometry x="440" y="890" width="100" height="40" as="geometry" />
        </mxCell>
        <mxCell id="WfV3LxgvtC_mbMyBmT8c-50" style="rounded=0;orthogonalLoop=1;jettySize=auto;html=1;exitX=0.5;exitY=0;exitDx=0;exitDy=0;entryX=0.19;entryY=1.013;entryDx=0;entryDy=0;entryPerimeter=0;" edge="1" parent="1" source="WfV3LxgvtC_mbMyBmT8c-35" target="WfV3LxgvtC_mbMyBmT8c-33">
          <mxGeometry relative="1" as="geometry" />
        </mxCell>
        <mxCell id="WfV3LxgvtC_mbMyBmT8c-35" value="cash" style="ellipse;whiteSpace=wrap;html=1;align=center;" vertex="1" parent="1">
          <mxGeometry x="300" y="890" width="100" height="40" as="geometry" />
        </mxCell>
        <mxCell id="WfV3LxgvtC_mbMyBmT8c-38" value="" style="edgeStyle=orthogonalEdgeStyle;rounded=0;orthogonalLoop=1;jettySize=auto;html=1;" edge="1" parent="1" source="WfV3LxgvtC_mbMyBmT8c-36" target="jiBfUynVm0UYuZoErs8x-34">
          <mxGeometry relative="1" as="geometry" />
        </mxCell>
        <mxCell id="WfV3LxgvtC_mbMyBmT8c-36" value="assign" style="shape=rhombus;perimeter=rhombusPerimeter;whiteSpace=wrap;html=1;align=center;" vertex="1" parent="1">
          <mxGeometry x="800" y="575" width="120" height="60" as="geometry" />
        </mxCell>
      </root>
    </mxGraphModel>
  </diagram>
  <diagram id="i-8mVQ4rvGBbkiCBmYv7" name="Page-2">
    <mxGraphModel dx="809" dy="566" grid="1" gridSize="10" guides="1" tooltips="1" connect="1" arrows="1" fold="1" page="1" pageScale="1" pageWidth="827" pageHeight="1169" math="0" shadow="0">
      <root>
        <mxCell id="0" />
        <mxCell id="1" parent="0" />
      </root>
    </mxGraphModel>
  </diagram>
</mxfile>
